<svg width="254" height="90" viewBox="0 0 254 90" fill="none" xmlns="http://www.w3.org/2000/svg">
<g clip-path="url(#clip0_1_9)">
<path opacity="0.2" d="M42.4273 0H42.4272C18.9953 0 0 18.3861 0 41.0664V41.0666C0 63.7469 18.9953 82.133 42.4272 82.133H42.4273C65.8592 82.133 84.8545 63.7469 84.8545 41.0666V41.0664C84.8545 18.3861 65.8592 0 42.4273 0Z" fill="white"/>
<path d="M93.6926 61.5993C93.6926 46.479 81.029 34.2216 65.4077 34.2216C49.7864 34.2216 37.1229 46.479 37.1229 61.5993C37.1229 76.7196 49.7864 88.977 65.4077 88.977C81.029 88.977 93.6926 76.7196 93.6926 61.5993Z" fill="white"/>
<path d="M101.642 48.1163V30.6617H108.528C109.852 30.6617 110.98 30.9146 111.911 31.4202C112.843 31.9202 113.553 32.6163 114.042 33.5083C114.536 34.3947 114.784 35.4174 114.784 36.5765C114.784 37.7356 114.534 38.7583 114.034 39.6447C113.534 40.531 112.809 41.2214 111.86 41.7157C110.917 42.21 109.775 42.4572 108.434 42.4572H104.045V39.4998H107.838C108.548 39.4998 109.133 39.3776 109.593 39.1333C110.059 38.8833 110.406 38.5396 110.633 38.1021C110.866 37.6589 110.982 37.1504 110.982 36.5765C110.982 35.997 110.866 35.4913 110.633 35.0595C110.406 34.622 110.059 34.2839 109.593 34.0452C109.127 33.8009 108.536 33.6788 107.821 33.6788H105.332V48.1163H101.642ZM122.816 48.372C121.492 48.372 120.347 48.0907 119.382 47.5282C118.421 46.96 117.68 46.1702 117.157 45.1589C116.634 44.1418 116.373 42.9629 116.373 41.622C116.373 40.2697 116.634 39.0879 117.157 38.0765C117.68 37.0595 118.421 36.2697 119.382 35.7072C120.347 35.139 121.492 34.8549 122.816 34.8549C124.14 34.8549 125.282 35.139 126.242 35.7072C127.208 36.2697 127.953 37.0595 128.475 38.0765C128.998 39.0879 129.259 40.2697 129.259 41.622C129.259 42.9629 128.998 44.1418 128.475 45.1589C127.953 46.1702 127.208 46.96 126.242 47.5282C125.282 48.0907 124.14 48.372 122.816 48.372ZM122.833 45.5595C123.436 45.5595 123.938 45.389 124.342 45.0481C124.745 44.7015 125.049 44.2299 125.254 43.6333C125.464 43.0367 125.569 42.3577 125.569 41.5964C125.569 40.835 125.464 40.156 125.254 39.5595C125.049 38.9629 124.745 38.4913 124.342 38.1447C123.938 37.7981 123.436 37.6248 122.833 37.6248C122.225 37.6248 121.714 37.7981 121.299 38.1447C120.89 38.4913 120.58 38.9629 120.37 39.5595C120.166 40.156 120.063 40.835 120.063 41.5964C120.063 42.3577 120.166 43.0367 120.37 43.6333C120.58 44.2299 120.89 44.7015 121.299 45.0481C121.714 45.389 122.225 45.5595 122.833 45.5595ZM137.535 48.372C136.194 48.372 135.041 48.0879 134.075 47.5197C133.115 46.9458 132.376 46.1504 131.859 45.1333C131.347 44.1163 131.092 42.9458 131.092 41.622C131.092 40.281 131.35 39.1049 131.867 38.0935C132.39 37.0765 133.132 36.2839 134.092 35.7157C135.052 35.1418 136.194 34.8549 137.518 34.8549C138.66 34.8549 139.66 35.0623 140.518 35.4771C141.376 35.8918 142.055 36.4742 142.555 37.2242C143.055 37.9742 143.33 38.8549 143.382 39.8663H139.955C139.859 39.2129 139.603 38.6873 139.188 38.2896C138.779 37.8862 138.242 37.6845 137.578 37.6845C137.015 37.6845 136.524 37.8379 136.103 38.1447C135.688 38.4458 135.365 38.8862 135.132 39.4657C134.899 40.0452 134.782 40.747 134.782 41.5708C134.782 42.406 134.896 43.1163 135.123 43.7015C135.356 44.2867 135.683 44.7327 136.103 45.0396C136.524 45.3464 137.015 45.4998 137.578 45.4998C137.992 45.4998 138.365 45.4146 138.694 45.2441C139.029 45.0737 139.305 44.8265 139.521 44.5026C139.742 44.1731 139.887 43.7782 139.955 43.318H143.382C143.325 44.318 143.052 45.1987 142.563 45.96C142.08 46.7157 141.413 47.3066 140.561 47.7327C139.708 48.1589 138.7 48.372 137.535 48.372ZM148.996 44.3492L149.004 39.9941H149.533L153.726 35.0254H157.894L152.26 41.6049H151.399L148.996 44.3492ZM145.706 48.1163V30.6617H149.337V48.1163H145.706ZM153.888 48.1163L150.036 42.4146L152.456 39.8492L158.141 48.1163H153.888ZM165.102 48.372C163.755 48.372 162.596 48.0992 161.624 47.5538C160.659 47.0026 159.914 46.2242 159.392 45.2185C158.869 44.2072 158.607 43.0112 158.607 41.6305C158.607 40.2839 158.869 39.1021 159.392 38.085C159.914 37.068 160.65 36.2754 161.599 35.7072C162.553 35.139 163.673 34.8549 164.957 34.8549C165.821 34.8549 166.624 34.9941 167.369 35.2725C168.119 35.5452 168.772 35.9572 169.329 36.5083C169.892 37.0595 170.329 37.7526 170.642 38.5879C170.954 39.4174 171.11 40.389 171.11 41.5026V42.4998H160.056V40.2498H167.693C167.693 39.7271 167.579 39.264 167.352 38.8606C167.124 38.4572 166.809 38.1418 166.406 37.9146C166.008 37.6816 165.545 37.5651 165.017 37.5651C164.465 37.5651 163.977 37.693 163.551 37.9487C163.13 38.1987 162.801 38.5367 162.562 38.9629C162.323 39.3833 162.201 39.8521 162.196 40.3691V42.5083C162.196 43.156 162.315 43.7157 162.553 44.1873C162.798 44.6589 163.142 45.0225 163.585 45.2782C164.028 45.5339 164.553 45.6617 165.161 45.6617C165.565 45.6617 165.934 45.6049 166.269 45.4913C166.605 45.3776 166.892 45.2072 167.13 44.9799C167.369 44.7526 167.551 44.4742 167.676 44.1447L171.034 44.3663C170.863 45.1731 170.514 45.8776 169.985 46.4799C169.463 47.0765 168.786 47.5424 167.957 47.8776C167.133 48.2072 166.181 48.372 165.102 48.372ZM180.443 35.0254V37.7526H172.559V35.0254H180.443ZM174.349 31.889H177.98V44.0935C177.98 44.4288 178.031 44.6901 178.133 44.8776C178.235 45.0595 178.377 45.1873 178.559 45.2612C178.747 45.335 178.963 45.372 179.207 45.372C179.377 45.372 179.548 45.3577 179.718 45.3293C179.889 45.2952 180.019 45.2697 180.11 45.2526L180.681 47.9543C180.499 48.0112 180.244 48.0765 179.914 48.1504C179.585 48.2299 179.184 48.2782 178.713 48.2952C177.838 48.3293 177.071 48.2129 176.411 47.9458C175.758 47.6788 175.249 47.264 174.886 46.7015C174.522 46.139 174.343 45.4288 174.349 44.5708V31.889ZM198.276 36.7725H194.544C194.475 36.2896 194.336 35.8606 194.126 35.4856C193.916 35.1049 193.646 34.781 193.316 34.514C192.987 34.247 192.606 34.0424 192.174 33.9004C191.748 33.7583 191.285 33.6873 190.785 33.6873C189.882 33.6873 189.095 33.9117 188.424 34.3606C187.754 34.8038 187.234 35.4515 186.865 36.3038C186.495 37.1504 186.311 38.1788 186.311 39.389C186.311 40.6333 186.495 41.6788 186.865 42.5254C187.24 43.372 187.762 44.0112 188.433 44.443C189.103 44.8748 189.879 45.0907 190.759 45.0907C191.254 45.0907 191.711 45.0254 192.132 44.8947C192.558 44.764 192.936 44.5737 193.265 44.3237C193.595 44.068 193.867 43.7583 194.083 43.3947C194.305 43.031 194.458 42.6163 194.544 42.1504L198.276 42.1674C198.18 42.9685 197.938 43.7413 197.552 44.4856C197.171 45.2242 196.657 45.8862 196.009 46.4714C195.367 47.0509 194.6 47.5112 193.708 47.8521C192.822 48.1873 191.819 48.3549 190.7 48.3549C189.143 48.3549 187.751 48.0026 186.524 47.2981C185.302 46.5935 184.336 45.5737 183.626 44.2384C182.921 42.9032 182.569 41.2867 182.569 39.389C182.569 37.4856 182.927 35.8663 183.643 34.531C184.359 33.1958 185.33 32.1788 186.558 31.4799C187.785 30.7754 189.166 30.4231 190.7 30.4231C191.711 30.4231 192.649 30.5651 193.512 30.8492C194.382 31.1333 195.151 31.5481 195.822 32.0935C196.492 32.6333 197.038 33.2952 197.458 34.0793C197.884 34.8634 198.157 35.7612 198.276 36.7725ZM204.485 30.6617V48.1163H200.855V30.6617H204.485ZM213.308 48.372C211.985 48.372 210.84 48.0907 209.874 47.5282C208.914 46.96 208.172 46.1702 207.649 45.1589C207.127 44.1418 206.865 42.9629 206.865 41.622C206.865 40.2697 207.127 39.0879 207.649 38.0765C208.172 37.0595 208.914 36.2697 209.874 35.7072C210.84 35.139 211.985 34.8549 213.308 34.8549C214.632 34.8549 215.774 35.139 216.735 35.7072C217.7 36.2697 218.445 37.0595 218.968 38.0765C219.49 39.0879 219.752 40.2697 219.752 41.622C219.752 42.9629 219.49 44.1418 218.968 45.1589C218.445 46.1702 217.7 46.96 216.735 47.5282C215.774 48.0907 214.632 48.372 213.308 48.372ZM213.325 45.5595C213.928 45.5595 214.431 45.389 214.834 45.0481C215.237 44.7015 215.541 44.2299 215.746 43.6333C215.956 43.0367 216.061 42.3577 216.061 41.5964C216.061 40.835 215.956 40.156 215.746 39.5595C215.541 38.9629 215.237 38.4913 214.834 38.1447C214.431 37.7981 213.928 37.6248 213.325 37.6248C212.718 37.6248 212.206 37.7981 211.791 38.1447C211.382 38.4913 211.073 38.9629 210.862 39.5595C210.658 40.156 210.556 40.835 210.556 41.5964C210.556 42.3577 210.658 43.0367 210.862 43.6333C211.073 44.2299 211.382 44.7015 211.791 45.0481C212.206 45.389 212.718 45.5595 213.325 45.5595ZM230.507 42.5424V35.0254H234.138V48.1163H230.652V45.7384H230.516C230.22 46.5055 229.729 47.122 229.041 47.5879C228.36 48.0538 227.527 48.2867 226.544 48.2867C225.669 48.2867 224.899 48.0879 224.235 47.6901C223.57 47.2924 223.05 46.7271 222.675 45.9941C222.306 45.2612 222.118 44.3833 222.112 43.3606V35.0254H225.743V42.7129C225.749 43.4856 225.956 44.0964 226.365 44.5452C226.774 44.9941 227.323 45.2185 228.01 45.2185C228.448 45.2185 228.857 45.1191 229.237 44.9202C229.618 44.7157 229.925 44.4146 230.158 44.0168C230.396 43.6191 230.513 43.1276 230.507 42.5424ZM241.866 48.3293C240.872 48.3293 239.971 48.0737 239.164 47.5623C238.363 47.0452 237.727 46.2867 237.255 45.2867C236.789 44.281 236.556 43.0481 236.556 41.5879C236.556 40.0879 236.798 38.8407 237.281 37.8464C237.764 36.8464 238.406 36.0992 239.207 35.6049C240.014 35.1049 240.897 34.8549 241.857 34.8549C242.59 34.8549 243.201 34.9799 243.69 35.2299C244.184 35.4742 244.582 35.781 244.883 36.1504C245.19 36.514 245.423 36.872 245.582 37.2242H245.693V30.6617H249.315V48.1163H245.735V46.0197H245.582C245.411 46.3833 245.17 46.7441 244.857 47.1021C244.551 47.4543 244.15 47.747 243.656 47.9799C243.167 48.2129 242.571 48.3293 241.866 48.3293ZM243.017 45.4401C243.602 45.4401 244.096 45.281 244.499 44.9629C244.909 44.639 245.221 44.1873 245.437 43.6077C245.659 43.0282 245.769 42.3492 245.769 41.5708C245.769 40.7924 245.661 40.1163 245.446 39.5424C245.23 38.9685 244.917 38.5254 244.508 38.2129C244.099 37.9004 243.602 37.7441 243.017 37.7441C242.42 37.7441 241.917 37.906 241.508 38.2299C241.099 38.5538 240.789 39.0026 240.579 39.5765C240.369 40.1504 240.264 40.8151 240.264 41.5708C240.264 42.3322 240.369 43.0055 240.579 43.5907C240.795 44.1702 241.105 44.6248 241.508 44.9543C241.917 45.2782 242.42 45.4401 243.017 45.4401Z" fill="white"/>
</g>
<defs>
<clipPath id="clip0_1_9">
<rect width="254" height="90" fill="white"/>
</clipPath>
</defs>
</svg>
